<svg xmlns="http://www.w3.org/2000/svg" viewBox="0 0 120 80" fill="none">
  <rect x="2" y="28" width="116" height="32" rx="6" fill="#f0fdf4" stroke="#16a34a" stroke-width="3"/>
  <rect x="2" y="28" width="40" height="32" rx="6" fill="#dcfce7" stroke="#16a34a" stroke-width="3"/>
  <rect x="8" y="32" width="28" height="20" rx="3" fill="#bae6fd" stroke="#16a34a" stroke-width="1.5"/>
  <rect x="50" y="32" width="20" height="16" rx="2" fill="#dcfce7" stroke="#16a34a" stroke-width="1.5"/>
  <rect x="76" y="32" width="20" height="16" rx="2" fill="#dcfce7" stroke="#16a34a" stroke-width="1.5"/>
  <path d="M50 36 L70 36M76 36 L96 36" stroke="#16a34a" stroke-width="1"/>
  <path d="M60 32 L60 48M86 32 L86 48" stroke="#16a34a" stroke-width="1"/>
  <circle cx="22" cy="62" r="12" stroke="#16a34a" stroke-width="4" fill="none"/>
  <circle cx="22" cy="62" r="4" fill="#16a34a"/>
  <circle cx="95" cy="62" r="12" stroke="#16a34a" stroke-width="4" fill="none"/>
  <circle cx="95" cy="62" r="4" fill="#16a34a"/>
  <rect x="2" y="36" width="6" height="8" rx="2" fill="#fbbf24"/>
  <rect x="112" y="36" width="6" height="8" rx="2" fill="#ef4444"/>
  <text x="60" y="10" text-anchor="middle" font-size="7" fill="#16a34a" font-family="Arial" font-weight="bold">CARGO VAN</text>
</svg>
