<svg xmlns="http://www.w3.org/2000/svg" viewBox="0 0 160 95" fill="none">
  <rect x="2" y="25" width="156" height="48" rx="6" fill="#faf5ff" stroke="#7e22ce" stroke-width="3"/>
  <rect x="2" y="25" width="52" height="48" rx="6" fill="#ede9fe" stroke="#7e22ce" stroke-width="3"/>
  <rect x="8" y="30" width="38" height="30" rx="3" fill="#bae6fd" stroke="#7e22ce" stroke-width="1.5"/>
  <rect x="60" y="30" width="32" height="22" rx="2" fill="#ede9fe" stroke="#7e22ce" stroke-width="1.5"/>
  <rect x="98" y="30" width="32" height="22" rx="2" fill="#ede9fe" stroke="#7e22ce" stroke-width="1.5"/>
  <rect x="136" y="30" width="18" height="22" rx="2" fill="#ede9fe" stroke="#7e22ce" stroke-width="1.5"/>
  <path d="M60 40 L154 40" stroke="#7e22ce" stroke-width="1"/>
  <path d="M94 30 L94 52M130 30 L130 52" stroke="#7e22ce" stroke-width="1"/>
  <circle cx="30" cy="76" r="15" stroke="#7e22ce" stroke-width="4" fill="none"/>
  <circle cx="30" cy="76" r="5" fill="#7e22ce"/>
  <circle cx="125" cy="76" r="15" stroke="#7e22ce" stroke-width="4" fill="none"/>
  <circle cx="125" cy="76" r="5" fill="#7e22ce"/>
  <rect x="142" y="76" r="10" stroke="#7e22ce" stroke-width="4" fill="none"/>
  <circle cx="145" cy="76" r="10" stroke="#7e22ce" stroke-width="4" fill="none"/>
  <circle cx="145" cy="76" r="4" fill="#7e22ce"/>
  <rect x="2" y="34" width="10" height="10" rx="2" fill="#fbbf24"/>
  <rect x="148" y="34" width="10" height="10" rx="2" fill="#ef4444"/>
  <path d="M52 25 L52 73" stroke="#7e22ce" stroke-width="2.5"/>
  <text x="80" y="11" text-anchor="middle" font-size="8" fill="#7e22ce" font-family="Arial" font-weight="bold">TATA 407 / TEMPO</text>
  <text x="80" y="21" text-anchor="middle" font-size="7" fill="#6b21a8" font-family="Arial">2500 kg • 20 CBM</text>
</svg>
