<?xml version="1.0" encoding="UTF-8"?>
<svg id="Layer_1" data-name="Layer 1" xmlns="http://www.w3.org/2000/svg" xmlns:xlink="http://www.w3.org/1999/xlink" viewBox="0 0 841.89 595.28">
  <defs>
    <style>
      .cls-1 {
        fill: url(#linear-gradient-13);
      }

      .cls-1, .cls-2, .cls-3, .cls-4, .cls-5, .cls-6, .cls-7, .cls-8, .cls-9, .cls-10, .cls-11, .cls-12 {
        fill-rule: evenodd;
      }

      .cls-2 {
        fill: url(#linear-gradient-15);
      }

      .cls-3 {
        fill: url(#linear-gradient-19);
      }

      .cls-13 {
        fill: url(#linear-gradient-10);
      }

      .cls-14 {
        fill: url(#linear-gradient-4);
      }

      .cls-15 {
        fill: url(#linear-gradient-3);
      }

      .cls-16 {
        fill: url(#linear-gradient-5);
      }

      .cls-17 {
        fill: url(#linear-gradient-8);
      }

      .cls-4 {
        fill: url(#linear-gradient-2);
      }

      .cls-5 {
        fill: url(#linear-gradient-18);
      }

      .cls-6 {
        fill: url(#linear-gradient-20);
      }

      .cls-7 {
        fill: url(#linear-gradient-16);
      }

      .cls-18 {
        fill: url(#linear-gradient-7);
      }

      .cls-8 {
        fill: url(#linear-gradient-12);
      }

      .cls-19 {
        fill: url(#linear-gradient-9);
      }

      .cls-20 {
        fill: url(#linear-gradient-6);
      }

      .cls-9 {
        fill: url(#linear-gradient-17);
      }

      .cls-10 {
        fill: url(#linear-gradient-14);
      }

      .cls-11 {
        fill: url(#linear-gradient-11);
      }

      .cls-12 {
        fill: url(#linear-gradient);
      }
    </style>
    <linearGradient id="linear-gradient" x1="536.91" y1="335.77" x2="536.91" y2="176.21" gradientUnits="userSpaceOnUse">
      <stop offset="0" stop-color="#2a4cb7"/>
      <stop offset="1" stop-color="#3a9eec"/>
    </linearGradient>
    <linearGradient id="linear-gradient-2" x1="420.89" y1="335.77" x2="420.89" y2="176.21" xlink:href="#linear-gradient"/>
    <linearGradient id="linear-gradient-3" x1="246.7" y1="335.77" x2="246.7" y2="176.21" xlink:href="#linear-gradient"/>
    <linearGradient id="linear-gradient-4" x1="407.76" y1="335.77" x2="407.76" y2="176.21" xlink:href="#linear-gradient"/>
    <linearGradient id="linear-gradient-5" x1="304.88" y1="335.77" x2="304.88" y2="176.21" xlink:href="#linear-gradient"/>
    <linearGradient id="linear-gradient-6" x1="460.63" y1="335.77" x2="460.63" y2="176.21" xlink:href="#linear-gradient"/>
    <linearGradient id="linear-gradient-7" x1="633.72" y1="335.77" x2="633.72" y2="176.21" xlink:href="#linear-gradient"/>
    <linearGradient id="linear-gradient-8" x1="260.35" y1="335.77" x2="260.35" y2="176.21" xlink:href="#linear-gradient"/>
    <linearGradient id="linear-gradient-9" x1="256.49" y1="335.77" x2="256.49" y2="176.21" xlink:href="#linear-gradient"/>
    <linearGradient id="linear-gradient-10" x1="420.77" y1="366.03" x2="420.77" y2="351.06" xlink:href="#linear-gradient"/>
    <linearGradient id="linear-gradient-11" x1="308.32" y1="421.99" x2="308.32" y2="387.98" xlink:href="#linear-gradient"/>
    <linearGradient id="linear-gradient-12" x1="411.08" y1="421.99" x2="411.08" y2="387.98" xlink:href="#linear-gradient"/>
    <linearGradient id="linear-gradient-13" x1="374.75" y1="421.99" x2="374.75" y2="387.98" xlink:href="#linear-gradient"/>
    <linearGradient id="linear-gradient-14" x1="338.01" y1="421.99" x2="338.01" y2="387.98" xlink:href="#linear-gradient"/>
    <linearGradient id="linear-gradient-15" x1="340.46" y1="421.99" x2="340.46" y2="387.98" xlink:href="#linear-gradient"/>
    <linearGradient id="linear-gradient-16" x1="351.13" y1="421.99" x2="351.13" y2="387.98" xlink:href="#linear-gradient"/>
    <linearGradient id="linear-gradient-17" x1="335.83" y1="421.99" x2="335.83" y2="387.98" xlink:href="#linear-gradient"/>
    <linearGradient id="linear-gradient-18" x1="496.35" y1="421.99" x2="496.35" y2="387.98" xlink:href="#linear-gradient"/>
    <linearGradient id="linear-gradient-19" x1="529.7" y1="421.99" x2="529.7" y2="387.98" xlink:href="#linear-gradient"/>
    <linearGradient id="linear-gradient-20" x1="464.05" y1="421.99" x2="464.05" y2="387.98" xlink:href="#linear-gradient"/>
  </defs>
  <g>
    <g>
      <path class="cls-12" d="M566.7,246.78h-43.17c-18.28,0-35.96,14.82-39.47,33.11l-3.7,19.28c-3.51,18.28,8.46,33.11,26.75,33.11h43.17c18.28,0,35.95-14.82,39.46-33.11l3.71-19.28c3.51-18.28-8.47-33.11-26.75-33.11ZM564.75,284.6l-1.85,9.85c-1.76,9.35-10.48,16.92-19.48,16.92h-21.24c-9,0-14.87-7.58-13.11-16.92l1.85-9.85c1.76-9.35,10.48-16.92,19.48-16.92h21.24c9,0,14.87,7.57,13.11,16.92Z"/>
      <path class="cls-4" d="M439.28,219.5l-1.22,6.51c-1.16,6.17-6.92,11.18-12.87,11.18h-14.03c-5.94,0-9.82-5-8.66-11.18l1.22-6.51c1.16-6.17,6.92-11.17,12.87-11.17h14.03c5.94,0,9.82,5,8.66,11.17Z"/>
      <polygon class="cls-15" points="286.24 256.64 272.13 330.17 205.22 332.99 224.27 261.09 243.43 256.76 288.19 246.65 286.24 256.64"/>
      <polygon class="cls-14" points="433.18 248.89 431.69 256.64 424.82 292.41 417.58 330.17 382.33 330.17 389.58 292.41 396.44 256.64 397.93 248.89 433.18 248.89"/>
      <path class="cls-16" d="M395.92,213.3h0c-.73,12.48-4.18,24.24-9.77,34.67,0,0,0,0,0,.01-1.61,3-3.4,5.9-5.34,8.66-14.49,20.57-37.99,34.36-64.76,35.61h-32.71l.91-4.64,6.07-30.98h17.32c1.6.27,13.08.42,15.63,0,15.39-2.52,28.32-12.37,35.08-25.84.57-1.11,1.09-2.25,1.55-3.41h0c.96-1.64,1.87-6.56,1.87-7.17.02-7.42-3.81-12.71-11.19-13.98-1.02-.18-3.68-.3-6.3-.19h-130.47l15.25-38.81h107.05s21.18.48,26.48,2.37c16.08,5.71,28.27,19.57,32.18,36.44.54,2.36.92,4.77,1.13,7.24Z"/>
      <polygon class="cls-20" points="489.63 211.65 482.48 248.89 466.88 330.17 431.63 330.17 438.87 292.41 445.74 256.64 447.23 248.89 454.38 211.65 489.63 211.65"/>
      <path class="cls-18" d="M638.19,291.94c-.97,1.6-1.52,3.46-1.52,5.46,0,.36.02.71.05,1.06.02.22.05.44.09.65h0c.35,2.17,1.36,4.11,2.81,5.61,1.31,1.38,3.01,2.4,4.9,2.9.86.23,1.78.36,2.72.36s1.86-.12,2.72-.36h10.25l-4.33,22.55h-39.75c-9.48-1.75-16.65-10.04-16.7-20.01h0s.49-2.55.49-2.55l1-5.21s0-.01,0-.01l6.05-31.48h-11.04l4.23-22.03h11.03l7.15-37.24h35.25l-7.15,37.24h25.04l-4.23,22.03h-25.04l-4.03,21.02h0Z"/>
      <polygon class="cls-17" points="319.6 232.06 297.5 236.77 289.74 238.42 279.16 240.67 238.71 249.28 226.03 251.97 217.91 253.7 206.37 244.94 201.09 240.93 207.22 240.47 228.54 238.88 233.66 238.49 275.19 235.38 290.55 234.24 296.41 233.8 319.6 232.06"/>
      <polygon class="cls-19" points="342.92 217.25 335.22 223.18 331.08 223.18 294.47 225.92 292.11 226.1 271.13 227.67 231.09 230.66 230.1 230.73 208.79 232.33 191.47 233.62 170.05 217.36 211.67 217.34 228.56 217.32 232.67 217.32 268.14 217.29 293.8 217.28 333.31 217.25 342.92 217.25"/>
    </g>
    <path class="cls-13" d="M181.23,385.35c38.91-10.48,78.65-18.07,118.7-23.11,5.01-.6,10.02-1.24,15.04-1.79,5.02-.52,10.04-1.05,15.07-1.51,5.03-.43,10.06-.9,15.09-1.29,5.04-.35,10.07-.75,15.11-1.07,20.16-1.24,40.36-1.8,60.56-1.85,20.2.07,40.4.68,60.56,1.94l15.11,1.1,15.09,1.31,15.07,1.54,15.03,1.82c40.05,5.11,79.77,12.77,118.66,23.34-39.53-7.79-79.3-13.93-119.27-18.03l-15-1.42-15.01-1.27-15.02-1.07-15.03-.85c-20.05-1.06-40.12-1.61-60.19-1.57-20.07-.08-40.14.46-60.19,1.46-5.01.23-10.02.55-15.03.83-5.01.3-10.01.7-15.02,1.04-5.01.37-10,.85-15.01,1.24-5,.42-10,.93-15,1.39-39.98,4.02-79.75,10.1-119.3,17.82Z"/>
  </g>
  <g>
    <path class="cls-11" d="M320.05,413.79l.16-1.03h0s.09-.6.09-.6v-.02s2.75-17.92,2.75-17.92h-9.22l-.92,5.2-1.84,10.35s0,0,0,0c0,0-.01.07-.03.17l-.18,1.02c-.57,2.64-3.08,4.55-5.9,4.55,0,0-.01,0-.02,0h-10.31l-1.04,7.27h14.41l.06-.05c.07,0,.15,0,.23,0,5.57,0,10.26-3.75,11.67-8.87l.09-.07Z"/>
    <path class="cls-8" d="M419.59,394.88h-14.1c-5.97,0-11.32,4.84-11.95,10.82l-.66,6.29c-.62,5.97,3.71,10.82,9.68,10.82h14.1c5.97,0,11.32-4.84,11.94-10.82l.66-6.29c.62-5.97-3.71-10.82-9.68-10.82ZM420.03,407.24l-.32,3.22c-.31,3.05-2.94,5.53-5.88,5.53h-6.94c-2.94,0-5.07-2.48-4.77-5.53l.32-3.22c.31-3.06,2.94-5.53,5.88-5.53h6.94c2.94,0,5.07,2.47,4.76,5.53Z"/>
    <path class="cls-1" d="M358.3,405.7l-.66,6.3c-.63,5.97,3.71,10.81,9.68,10.81h16.04c2.53,0,4.68-1.86,5.05-4.36l.37-2.47.5-3.38.74-5.02h-13.43l-2.51,5.02h7.06l-.5,3.38h-9c-2.94,0-5.07-2.48-4.76-5.53l.32-3.22c.31-3.05,2.94-5.53,5.88-5.53h17.81l1.01-6.83h-21.66c-5.97,0-11.32,4.84-11.95,10.81Z"/>
    <g>
      <path class="cls-10" d="M341.87,416.19c0,2.06.44,4.15,1.4,6.25h-10.54c.64-2.32,1.67-4.47,3.02-6.47h6.11c0,.07,0,.15,0,.22Z"/>
      <path class="cls-2" d="M344.28,407.53c-.33.61-.62,1.22-.88,1.83-.26.61-.5,1.23-.69,1.84-.38,1.18-.64,2.36-.75,3.55h-5.3c2.02-2.63,4.61-5.02,7.63-7.22Z"/>
      <path class="cls-7" d="M351.52,405.02h0c.47-1.1,1.1-2.15,1.93-3.14-.81.63-1.55,1.27-2.21,1.92-.25.25-.5.5-.73.75-2.89,3.12-4.05,6.38-3.68,9.77.02.19.05.38.08.57.06.38.14.76.23,1.14.15.57.33,1.15.56,1.72.15.39.32.77.51,1.16.19.39.39.78.62,1.17.45.78.96,1.57,1.54,2.37h5.13l-3.63-15.89-.35-1.54Z"/>
      <path class="cls-9" d="M336.08,409.53c.77-.61,1.55-1.19,2.36-1.75.54-.37,1.08-.73,1.64-1.07,2.22-1.38,4.58-2.57,7.1-3.55.63-.25,1.27-.48,1.91-.7.57-.19,1.14-.38,1.72-.55.92-.27,1.87-.52,2.83-.75l-3-.03-1.46-6.39h-12.36l-3.82,5.63-3.82,5.63-11.16,16.45h6.9c3.12-5.13,6.82-9.46,11.16-12.92Z"/>
    </g>
    <g>
      <path class="cls-5" d="M484.62,403.2l-.16,1.03h0s-.09.6-.09.6v.02s-2.75,17.92-2.75,17.92h9.22l.92-5.2,1.84-10.35s0,0,0,0c0,0,.01-.07.03-.17l.18-1.02c.57-2.64,3.08-4.55,5.9-4.55,0,0,.01,0,.02,0h10.31l1.04-7.27h-14.41l-.06.05c-.07,0-.15,0-.23,0-5.57,0-10.26,3.75-11.67,8.87l-.09.07Z"/>
      <path class="cls-3" d="M538.22,394.88h-14.1c-5.97,0-11.32,4.84-11.95,10.82l-.66,6.3c-.62,5.97,3.71,10.82,9.68,10.82h14.1c5.97,0,11.32-4.84,11.95-10.82l.66-6.3c.62-5.97-3.71-10.82-9.68-10.82ZM538.66,407.24l-.32,3.22c-.31,3.05-2.94,5.53-5.88,5.53h-6.94c-2.94,0-5.07-2.48-4.77-5.53l.32-3.22c.31-3.06,2.94-5.53,5.88-5.53h6.94c2.94,0,5.07,2.47,4.76,5.53Z"/>
      <path class="cls-6" d="M478.56,395.7c-1.24-.93-2.8-1.48-4.55-1.48h-12.26s-.06.05-.06.05c-.07,0-.15,0-.23,0-.1,0-.2,0-.3,0-5.43.13-9.98,3.84-11.37,8.87l-.09.07-.16,1.03h0s-.09.6-.09.6v.02s-1.08,6.99-1.08,6.99l-1.67,10.92h9.21l.62-4.38.38-2.12h14.57c4.54,0,8.61-3.68,9.08-8.22l.81-5.6c.29-2.79-.84-5.26-2.81-6.74ZM474.41,404.33l-.3,2.32c-.28,2.2-2.69,3.99-5.37,3.99h-6.34c-2.69,0-4.64-1.79-4.36-3.99l.3-2.32c.28-2.21,2.69-3.99,5.37-3.99h6.34c2.68,0,4.64,1.79,4.35,3.99Z"/>
    </g>
  </g>
</svg>